<svg width="133" height="31" viewBox="0 0 133 31" fill="none" xmlns="http://www.w3.org/2000/svg">
<path d="M0.152 26L9.908 0.079999H13.22L3.896 26H0.152ZM20.204 26L10.88 0.079999H14.372L24.164 26H20.204ZM5.084 15.668H18.98V18.836H5.084V15.668ZM115.965 30.86V27.908H132.021V30.86H115.965Z" fill="#247BFF"/>
<path d="M27.96 26V7.64H31.524V11.96H31.704V26H27.96ZM40.992 26V14.192C40.992 12.92 40.668 11.972 40.02 11.348C39.396 10.724 38.46 10.412 37.212 10.412C36.132 10.412 35.172 10.652 34.332 11.132C33.516 11.612 32.868 12.272 32.388 13.112C31.932 13.952 31.704 14.948 31.704 16.1L31.236 11.708C31.836 10.34 32.76 9.26 34.008 8.468C35.256 7.676 36.708 7.28 38.364 7.28C40.332 7.28 41.88 7.832 43.008 8.936C44.136 10.04 44.7 11.504 44.7 13.328V26H40.992ZM60.9571 26C60.8371 25.544 60.7531 25.04 60.7051 24.488C60.6811 23.936 60.6691 23.264 60.6691 22.472H60.4891V13.724C60.4891 12.548 60.1891 11.672 59.5891 11.096C59.0131 10.496 58.0891 10.196 56.8171 10.196C55.5931 10.196 54.6091 10.436 53.8651 10.916C53.1451 11.396 52.7251 12.08 52.6051 12.968H49.0411C49.2091 11.24 49.9891 9.86 51.3811 8.828C52.7731 7.796 54.6331 7.28 56.9611 7.28C59.3611 7.28 61.1611 7.844 62.3611 8.972C63.5611 10.076 64.1611 11.708 64.1611 13.868V22.472C64.1611 23.024 64.1971 23.588 64.2691 24.164C64.3411 24.74 64.4491 25.352 64.5931 26H60.9571ZM54.6211 26.36C52.7491 26.36 51.2611 25.904 50.1571 24.992C49.0531 24.056 48.5011 22.796 48.5011 21.212C48.5011 19.58 49.0771 18.296 50.2291 17.36C51.4051 16.4 53.0851 15.752 55.2691 15.416L61.3171 14.444V17.072L55.8451 17.936C54.6211 18.128 53.6971 18.452 53.0731 18.908C52.4731 19.364 52.1731 20.024 52.1731 20.888C52.1731 21.728 52.4491 22.364 53.0011 22.796C53.5771 23.204 54.4051 23.408 55.4851 23.408C56.9251 23.408 58.1131 23.06 59.0491 22.364C60.0091 21.668 60.4891 20.792 60.4891 19.736L60.9571 22.4C60.5251 23.672 59.7571 24.656 58.6531 25.352C57.5491 26.024 56.2051 26.36 54.6211 26.36ZM81.1998 26L75.3318 17.612L67.8798 7.64H72.1278L77.4918 15.308L85.4478 26H81.1998ZM75.5838 15.308L81.0558 7.64H85.1598L77.4558 17.864L75.5838 15.308ZM77.0958 17.972L71.1918 26H67.0518L75.2958 15.344L77.0958 17.972ZM95.7511 26.36C93.9031 26.36 92.2711 25.952 90.8551 25.136C89.4631 24.32 88.3711 23.192 87.5791 21.752C86.7871 20.312 86.3911 18.656 86.3911 16.784C86.3911 14.888 86.7751 13.232 87.5431 11.816C88.3351 10.376 89.4391 9.26 90.8551 8.468C92.2711 7.676 93.8911 7.28 95.7151 7.28C97.4911 7.28 99.0271 7.664 100.323 8.432C101.643 9.176 102.651 10.22 103.347 11.564C104.067 12.908 104.427 14.504 104.427 16.352C104.427 16.64 104.415 16.916 104.391 17.18C104.391 17.42 104.367 17.672 104.319 17.936H88.9111V15.128H101.691L100.755 16.244C100.755 14.276 100.311 12.776 99.4231 11.744C98.5351 10.712 97.2991 10.196 95.7151 10.196C94.0111 10.196 92.6551 10.784 91.6471 11.96C90.6631 13.112 90.1711 14.72 90.1711 16.784C90.1711 18.872 90.6631 20.504 91.6471 21.68C92.6551 22.856 94.0471 23.444 95.8231 23.444C96.9031 23.444 97.8391 23.228 98.6311 22.796C99.4231 22.34 100.011 21.68 100.395 20.816H103.923C103.323 22.544 102.303 23.9 100.863 24.884C99.4471 25.868 97.7431 26.36 95.7511 26.36ZM108.257 26V7.64H111.821V12.212H112.001V26H108.257ZM112.001 16.424L111.533 12.068C111.965 10.508 112.709 9.32 113.765 8.504C114.821 7.688 116.081 7.28 117.545 7.28C118.097 7.28 118.481 7.328 118.697 7.424V10.952C118.577 10.904 118.409 10.88 118.193 10.88C117.977 10.856 117.713 10.844 117.401 10.844C115.601 10.844 114.245 11.312 113.333 12.248C112.445 13.184 112.001 14.576 112.001 16.424Z" fill="white"/>
</svg>
