<svg width="147" height="29" viewBox="0 0 147 29" fill="none" xmlns="http://www.w3.org/2000/svg">
<path d="M0.964 26L12.376 0.799998H15.94L27.388 26H23.608L13.42 2.816H14.86L4.672 26H0.964ZM5.824 19.7L6.796 16.82H20.98L22.024 19.7H5.824ZM128.969 28.232V26H146.969V28.232H128.969Z" fill="#247BFF"/>
<path d="M40.8312 6.74C42.3912 6.74 43.7592 7.04 44.9352 7.64C46.1352 8.24 47.0712 9.152 47.7432 10.376C48.4152 11.6 48.7512 13.148 48.7512 15.02V26H45.2952V15.416C45.2952 13.568 44.8392 12.176 43.9272 11.24C43.0392 10.304 41.7792 9.836 40.1472 9.836C38.9232 9.836 37.8552 10.076 36.9432 10.556C36.0312 11.036 35.3232 11.744 34.8192 12.68C34.3392 13.616 34.0992 14.78 34.0992 16.172V26H30.6432V6.92H33.9552V12.068L33.4152 10.7C34.0392 9.452 34.9992 8.48 36.2952 7.784C37.5912 7.088 39.1032 6.74 40.8312 6.74ZM66.9911 26V21.968L66.8111 21.212V14.336C66.8111 12.872 66.3791 11.744 65.5151 10.952C64.6751 10.136 63.4031 9.728 61.6991 9.728C60.5711 9.728 59.4671 9.92 58.3871 10.304C57.3071 10.664 56.3951 11.156 55.6511 11.78L54.2111 9.188C55.1951 8.396 56.3711 7.796 57.7391 7.388C59.1311 6.956 60.5831 6.74 62.0951 6.74C64.7111 6.74 66.7271 7.376 68.1431 8.648C69.5591 9.92 70.2671 11.864 70.2671 14.48V26H66.9911ZM60.7271 26.216C59.3111 26.216 58.0631 25.976 56.9831 25.496C55.9271 25.016 55.1111 24.356 54.5351 23.516C53.9591 22.652 53.6711 21.68 53.6711 20.6C53.6711 19.568 53.9111 18.632 54.3911 17.792C54.8951 16.952 55.6991 16.28 56.8031 15.776C57.9311 15.272 59.4431 15.02 61.3391 15.02H67.3871V17.504H61.4831C59.7551 17.504 58.5911 17.792 57.9911 18.368C57.3911 18.944 57.0911 19.64 57.0911 20.456C57.0911 21.392 57.4631 22.148 58.2071 22.724C58.9511 23.276 59.9831 23.552 61.3031 23.552C62.5991 23.552 63.7271 23.264 64.6871 22.688C65.6711 22.112 66.3791 21.272 66.8111 20.168L67.4951 22.544C67.0391 23.672 66.2351 24.572 65.0831 25.244C63.9311 25.892 62.4791 26.216 60.7271 26.216ZM73.8907 26L82.0987 15.344L82.0627 17.108L74.2507 6.92H78.1027L84.0787 14.768H82.6027L88.5787 6.92H92.3587L84.4387 17.18L84.4747 15.344L92.7547 26H88.8307L82.5307 17.648L83.9347 17.864L77.7427 26H73.8907ZM104.389 26.216C102.349 26.216 100.549 25.796 98.9892 24.956C97.4532 24.116 96.2532 22.964 95.3892 21.5C94.5492 20.036 94.1292 18.356 94.1292 16.46C94.1292 14.564 94.5372 12.884 95.3532 11.42C96.1932 9.956 97.3332 8.816 98.7732 8C100.237 7.16 101.881 6.74 103.705 6.74C105.553 6.74 107.185 7.148 108.601 7.964C110.017 8.78 111.121 9.932 111.913 11.42C112.729 12.884 113.137 14.6 113.137 16.568C113.137 16.712 113.125 16.88 113.101 17.072C113.101 17.264 113.089 17.444 113.065 17.612H96.8292V15.128H111.265L109.861 15.992C109.885 14.768 109.633 13.676 109.105 12.716C108.577 11.756 107.845 11.012 106.909 10.484C105.997 9.932 104.929 9.656 103.705 9.656C102.505 9.656 101.437 9.932 100.501 10.484C99.5652 11.012 98.8332 11.768 98.3052 12.752C97.7772 13.712 97.5132 14.816 97.5132 16.064V16.64C97.5132 17.912 97.8012 19.052 98.3772 20.06C98.9772 21.044 99.8052 21.812 100.861 22.364C101.917 22.916 103.129 23.192 104.497 23.192C105.625 23.192 106.645 23 107.557 22.616C108.493 22.232 109.309 21.656 110.005 20.888L111.913 23.12C111.049 24.128 109.969 24.896 108.673 25.424C107.401 25.952 105.973 26.216 104.389 26.216ZM117.936 26V6.92H121.248V12.104L120.924 10.808C121.452 9.488 122.34 8.48 123.588 7.784C124.836 7.088 126.372 6.74 128.196 6.74V10.088C128.052 10.064 127.908 10.052 127.764 10.052C127.644 10.052 127.524 10.052 127.404 10.052C125.556 10.052 124.092 10.604 123.012 11.708C121.932 12.812 121.392 14.408 121.392 16.496V26H117.936Z" fill="black"/>
</svg>
