<svg width="1016" height="255" viewBox="0 0 1016 255" fill="none" xmlns="http://www.w3.org/2000/svg">
<path d="M176.814 235.536C236.48 208.289 262.779 137.808 235.532 78.1427C208.292 18.5582 137.811 -7.7414 78.1396 19.4247C18.555 46.6653 -7.74455 117.146 19.4216 176.818C46.5877 236.489 117.149 262.782 176.814 235.536ZM88.0554 41.0321C135.745 19.319 192.212 40.3687 213.919 87.978C235.626 135.587 214.582 192.135 166.973 213.841C119.283 235.555 62.8165 214.505 41.1095 166.896C19.3964 119.206 40.4461 62.7391 88.0554 41.0321ZM103.879 186.653L138.383 94.1532L167.991 105.181C174.162 107.464 180.974 104.351 183.264 98.2608C185.554 92.1705 182.434 85.278 176.344 82.9882L135.558 67.7905C129.388 65.5067 122.576 68.6201 120.286 74.7104L81.6121 178.387C79.3284 184.558 82.4417 191.37 88.532 193.66C94.7028 195.944 101.595 192.824 103.879 186.653Z" fill="white" stroke="white" stroke-width="0.5" stroke-miterlimit="10"/>
<path d="M269.247 125.985C269.247 91.9678 291.007 68.5143 322.308 68.5143C353.609 68.5143 374.52 90.2404 374.52 123.992V132.098L294.274 132.297C296.235 151.366 306.102 161 323.615 161C338.056 161 347.532 155.286 350.603 144.988H374.977C370.468 168.64 351.06 182.925 323.223 182.925C291.53 182.925 269.312 159.472 269.312 125.919L269.247 125.985ZM294.928 115.222H348.446C348.446 100.339 338.318 90.4397 322.569 90.4397C306.821 90.4397 297.542 99.0105 294.993 115.222H294.928Z" fill="white"/>
<path d="M439.149 68.5143C455.355 68.5143 469.339 75.7563 475.808 88.2471L477.507 71.7699H501.686V217.076H475.612V165.651C468.947 176.613 454.898 182.992 439.149 182.992C407.456 182.992 389.355 158.409 389.355 124.657C389.355 90.9048 409.221 68.5143 439.149 68.5143ZM445.161 158.874C463.523 158.874 475.351 145.519 475.351 125.985C475.351 106.452 463.458 92.898 445.161 92.898C426.864 92.898 415.625 106.718 415.625 125.985C415.625 145.253 426.864 158.874 445.161 158.874Z" fill="white"/>
<path d="M627.669 71.8333V180.132H603.295L601.335 165.648C594.865 175.946 581.077 182.989 566.832 182.989C542.262 182.989 527.82 166.113 527.82 139.603V71.8333H554.155V130.168C554.155 150.765 562.127 159.136 576.764 159.136C593.362 159.136 601.335 149.303 601.335 128.64V71.8333H627.669Z" fill="white"/>
<path d="M651.789 33.895C651.789 24.9255 658.912 17.8828 667.995 17.8828C677.078 17.8828 683.743 24.9255 683.743 33.895C683.743 42.8645 676.621 50.1065 667.995 50.1065C658.912 50.1065 651.789 42.8645 651.789 33.895ZM654.795 71.8326H681.13V180.131H654.795V71.8326Z" fill="white"/>
<path d="M775.153 96.1494H765.416C746.466 96.1494 734.573 106.448 734.573 127.509V180.13H708.238V72.0314H733.07L734.573 87.8443C739.082 77.0809 749.276 69.8389 763.456 69.8389C767.115 69.8389 770.775 70.3039 775.088 71.367V96.1494H775.153Z" fill="white"/>
<path d="M783.13 125.985C783.13 91.9678 804.891 68.5143 836.192 68.5143C867.492 68.5143 888.403 90.2404 888.403 123.992V132.098L808.158 132.297C810.118 151.366 819.986 161 837.498 161C851.94 161 861.415 155.286 864.486 144.988H888.861C884.352 168.64 864.944 182.925 837.106 182.925C805.413 182.925 783.196 159.472 783.196 125.919L783.13 125.985ZM808.811 115.222H862.33C862.33 100.339 852.201 90.4397 836.453 90.4397C820.704 90.4397 811.425 99.0105 808.877 115.222H808.811Z" fill="white"/>
<path d="M903.233 126.375C903.233 92.6234 922.641 68.5054 954.791 68.5054C969.69 68.5054 982.825 74.8837 989.49 85.6471V36.8796H1015.56V180.126H991.385L990.601 161.323C984.132 173.814 969.364 182.916 953.223 182.916C922.38 182.916 903.168 159.928 903.168 126.375H903.233ZM989.294 125.512C989.294 105.978 977.401 92.424 959.104 92.424C940.807 92.424 929.568 106.244 929.568 125.512C929.568 144.779 940.807 158.4 959.104 158.4C977.401 158.4 989.294 145.045 989.294 125.512Z" fill="white"/>
<path d="M501.745 101.724C501.745 94.3853 495.893 88.436 488.675 88.436C481.457 88.436 475.606 94.3853 475.606 101.724V222.912C475.606 230.251 481.457 236.2 488.675 236.2C495.893 236.2 501.745 230.251 501.745 222.912V101.724Z" fill="white"/>
<path d="M1002.83 16.9489H1002.11C995.037 16.9489 989.303 22.7792 989.303 29.9713V96.2127C989.303 103.405 995.037 109.235 1002.11 109.235H1002.83C1009.9 109.235 1015.64 103.405 1015.64 96.2127V29.9713C1015.64 22.7792 1009.9 16.9489 1002.83 16.9489Z" fill="white"/>
</svg>
